<svg width="124" height="24" viewBox="0 0 124 24" fill="none" xmlns="http://www.w3.org/2000/svg">
<path d="M26.0015 1.9529C24.0021 1.03845 21.8787 0.37198 19.6623 0C19.3833 0.48048 19.0733 1.13144 18.8563 1.64292C16.4989 1.30193 14.1585 1.30193 11.8336 1.64292C11.6166 1.13144 11.2911 0.48048 11.0276 0C8.79575 0.37198 6.67235 1.03845 4.6869 1.9529C0.672601 7.8736 -0.41235 13.6548 0.130124 19.3585C2.79599 21.2959 5.36889 22.4739 7.89682 23.2489C8.51679 22.4119 9.07477 21.5129 9.55525 20.5675C8.64079 20.2265 7.77283 19.808 6.93587 19.312C7.15286 19.1571 7.36986 18.9866 7.57135 18.8161C12.6241 21.1255 18.0969 21.1255 23.0876 18.8161C23.3046 18.9866 23.5061 19.1571 23.7231 19.312C22.8861 19.808 22.0182 20.2265 21.1037 20.5675C21.5842 21.5129 22.1422 22.4119 22.7621 23.2489C25.2885 22.4739 27.8769 21.2959 30.5288 19.3585C31.1952 12.7559 29.4733 7.0212 26.0015 1.9529ZM10.2527 15.8402C8.73376 15.8402 7.49382 14.4608 7.49382 12.7714C7.49382 11.082 8.70276 9.7025 10.2527 9.7025C11.7871 9.7025 13.0425 11.082 13.0115 12.7714C13.0115 14.4608 11.7871 15.8402 10.2527 15.8402ZM20.4373 15.8402C18.9183 15.8402 17.6768 14.4608 17.6768 12.7714C17.6768 11.082 18.8873 9.7025 20.4373 9.7025C21.9717 9.7025 23.2271 11.082 23.1961 12.7714C23.1961 14.4608 21.9872 15.8402 20.4373 15.8402Z" fill="white"/>
<path d="M41.2698 4.86615H47.8586C49.4395 4.86615 50.7879 5.1141 51.8884 5.6101C52.9888 6.1061 53.8103 6.7881 54.3528 7.6715C54.8952 8.555 55.1742 9.5624 55.1742 10.7094C55.1742 11.8253 54.8953 12.8328 54.3218 13.7472C53.7483 14.6462 52.8804 15.3746 51.7179 15.9016C50.5555 16.4286 49.114 16.6921 47.3936 16.6921H41.2698V4.86615ZM47.3161 13.6852C48.3855 13.6852 49.207 13.4217 49.7805 12.8793C50.354 12.3523 50.6485 11.6083 50.6485 10.6939C50.6485 9.8414 50.385 9.1594 49.8735 8.648C49.362 8.1365 48.5871 7.873 47.5486 7.873H45.4872V13.6852H47.3161Z" fill="white"/>
<path d="M65.4361 16.6774C64.5216 16.4449 63.7002 16.1039 62.9717 15.6389V12.8335C63.5297 13.2675 64.2581 13.6085 65.1881 13.8875C66.118 14.1665 67.017 14.306 67.885 14.306C68.2879 14.306 68.5979 14.2595 68.7994 14.151C69.0009 14.0425 69.1094 13.9185 69.1094 13.7635C69.1094 13.593 69.0474 13.4535 68.9389 13.345C68.8304 13.2365 68.6134 13.1435 68.2879 13.0505L66.2575 12.6011C65.0951 12.3376 64.2736 11.9501 63.7776 11.4851C63.2817 11.0201 63.0492 10.3847 63.0492 9.6097C63.0492 8.9587 63.2662 8.3853 63.6846 7.9048C64.1186 7.4243 64.7231 7.0523 65.5136 6.7888C66.304 6.5254 67.2185 6.38589 68.2879 6.38589C69.2334 6.38589 70.1013 6.4789 70.8918 6.6959C71.6822 6.8973 72.3332 7.1608 72.8447 7.4708V10.1212C72.3177 9.81119 71.6978 9.5632 71.0158 9.3772C70.3183 9.1912 69.6054 9.0982 68.8769 9.0982C67.8229 9.0982 67.296 9.2842 67.296 9.6407C67.296 9.8112 67.3735 9.9352 67.544 10.0282C67.7145 10.1212 68.0089 10.1987 68.4429 10.2917L70.1323 10.6017C71.2328 10.7876 72.0542 11.1286 72.5967 11.6091C73.1392 12.0896 73.4027 12.787 73.4027 13.7325C73.4027 14.7555 72.9532 15.5769 72.0542 16.1659C71.1553 16.7704 69.8843 17.0648 68.2414 17.0648C67.2805 17.0338 66.3505 16.9098 65.4361 16.6774Z" fill="white"/>
<path d="M77.5892 16.3213C76.6282 15.8408 75.8843 15.2054 75.4038 14.3994C74.9078 13.5934 74.6753 12.679 74.6753 11.656C74.6753 10.6486 74.9233 9.7341 75.4348 8.9437C75.9463 8.1377 76.6902 7.5177 77.6667 7.0528C78.6431 6.6033 79.8211 6.3708 81.185 6.3708C82.8744 6.3708 84.2694 6.7273 85.3853 7.4402V10.5246C84.9978 10.2611 84.5329 10.0286 84.0059 9.8736C83.4789 9.7031 82.9209 9.6256 82.332 9.6256C81.278 9.6256 80.4721 9.8116 79.8676 10.1991C79.2786 10.5866 78.9841 11.0826 78.9841 11.7025C78.9841 12.307 79.2631 12.803 79.8521 13.1905C80.4255 13.5779 81.2625 13.7794 82.3475 13.7794C82.9054 13.7794 83.4634 13.7019 84.0059 13.5314C84.5484 13.3609 85.0288 13.175 85.4163 12.927V15.9183C84.1763 16.6623 82.7349 17.0343 81.1075 17.0343C79.7281 17.0343 78.5656 16.7863 77.5892 16.3213Z" fill="white"/>
<path d="M89.804 16.3213C88.8275 15.8408 88.0836 15.2054 87.5721 14.3839C87.0606 13.5624 86.7971 12.648 86.7971 11.625C86.7971 10.6176 87.0606 9.7031 87.5721 8.9127C88.0836 8.1222 88.8275 7.5022 89.7885 7.0528C90.7494 6.6033 91.9118 6.3708 93.2463 6.3708C94.5793 6.3708 95.7417 6.5878 96.7027 7.0528C97.6636 7.5022 98.4076 8.1222 98.9191 8.9127C99.4305 9.7031 99.6785 10.6021 99.6785 11.625C99.6785 12.6325 99.4305 13.5624 98.9191 14.3839C98.4076 15.2054 97.6791 15.8563 96.7027 16.3213C95.7262 16.7863 94.5793 17.0343 93.2463 17.0343C91.9273 17.0343 90.7804 16.7863 89.804 16.3213ZM94.9357 13.3299C95.3387 12.927 95.5557 12.369 95.5557 11.7025C95.5557 11.0206 95.3542 10.4936 94.9357 10.0906C94.5173 9.6876 93.9593 9.4861 93.2618 9.4861C92.5334 9.4861 91.9738 9.6876 91.5554 10.0906C91.1524 10.4936 90.9354 11.0206 90.9354 11.7025C90.9354 12.3845 91.1369 12.927 91.5554 13.3299C91.9738 13.7484 92.5334 13.9499 93.2618 13.9499C93.9593 13.9344 94.5328 13.7329 94.9357 13.3299Z" fill="white"/>
<path d="M110.048 6.9901V10.6325C109.614 10.3535 109.056 10.214 108.374 10.214C107.475 10.214 106.777 10.493 106.297 11.0354C105.816 11.5779 105.568 12.4304 105.568 13.5773V16.6772H101.43V6.8196H105.491V9.966C105.708 8.819 106.08 7.9666 106.576 7.4241C107.072 6.8816 107.723 6.5872 108.513 6.5872C109.102 6.5872 109.614 6.7267 110.048 6.9901Z" fill="white"/>
<path d="M124 4.52563V16.6925H119.862V14.4761C119.505 15.3131 118.978 15.9486 118.265 16.3825C117.551 16.8165 116.667 17.0335 115.613 17.0335C114.683 17.0335 113.862 16.801 113.164 16.3515C112.467 15.9021 111.925 15.2666 111.553 14.4761C111.181 13.6702 110.995 12.7712 110.995 11.7793C110.979 10.7408 111.181 9.8109 111.599 8.9894C112.002 8.168 112.591 7.5325 113.335 7.0675C114.079 6.6025 114.931 6.37 115.892 6.37C117.861 6.37 119.18 7.2225 119.862 8.9429V4.52563H124ZM119.242 13.2517C119.66 12.8487 119.877 12.3062 119.877 11.6553C119.877 11.0198 119.676 10.5083 119.257 10.1209C118.839 9.73341 118.281 9.53191 117.582 9.53191C116.884 9.53191 116.326 9.73341 115.908 10.1364C115.489 10.5393 115.288 11.0508 115.288 11.7018C115.288 12.3527 115.489 12.8642 115.908 13.2672C116.326 13.6702 116.869 13.8717 117.566 13.8717C118.265 13.8717 118.823 13.6702 119.242 13.2517Z" fill="white"/>
<path d="M58.9884 7.4091C60.1771 7.4091 61.1428 6.5416 61.1428 5.4717C61.1428 4.40164 60.1771 3.5343 58.9884 3.5343C57.798 3.5343 56.834 4.40164 56.834 5.4717C56.834 6.5416 57.798 7.4091 58.9884 7.4091Z" fill="white"/>
<path d="M61.1428 8.741C59.8253 9.3144 58.1824 9.3299 56.834 8.741V16.6921H61.1428V8.741Z" fill="white"/>
</svg>
